<?xml version="1.0" encoding="utf-8"?><!-- Uploaded to: SVG Repo, www.svgrepo.com, Generator: SVG Repo Mixer Tools -->
<svg width="800px" height="800px" viewBox="0 0 24 24" fill="none" xmlns="http://www.w3.org/2000/svg">
<path d="M11 6C11 5.44772 11.4477 5 12 5C12.5523 5 13 5.44772 13 6V10.2676C13.5978 10.6134 14 11.2597 14 12C14 13.1046 13.1046 14 12 14C10.8954 14 10 13.1046 10 12C10 11.2597 10.4022 10.6134 11 10.2676V6Z" fill="#7E30E1"/>
<path fill-rule="evenodd" clip-rule="evenodd" d="M12 0C11.4477 0 11 0.447715 11 1V1.04484C8.95669 1.22898 7.0745 1.97186 5.50739 3.11954L4.67857 2.29073C4.28805 1.9002 3.65436 1.90073 3.26383 2.29125C2.87331 2.68177 2.87279 3.31546 3.26331 3.70599L4.00362 4.44629C2.14163 6.4167 1 9.07503 1 12C1 18.0751 5.92487 23 12 23C18.0751 23 23 18.0751 23 12C23 9.07503 21.8584 6.4167 19.9964 4.44629L20.7367 3.70599C21.1272 3.31546 21.1267 2.68177 20.7362 2.29125C20.3456 1.90073 19.712 1.9002 19.3214 2.29073L18.4926 3.11954C16.9255 1.97186 15.0433 1.22898 13 1.04484V1C13 0.447715 12.5523 0 12 0ZM12 20.9932C7.03321 20.9932 3.00683 16.9668 3.00683 12C3.00683 7.03321 7.03321 3.00683 12 3.00683C16.9668 3.00683 20.9932 7.03321 20.9932 12C20.9932 16.9668 16.9668 20.9932 12 20.9932Z" fill="#7E30E1"/>
</svg>